<svg width="37" height="42" viewBox="0 0 37 42" fill="none" xmlns="http://www.w3.org/2000/svg">
<path d="M33.0357 2.625H3.96429C1.77567 2.625 0 4.38867 0 6.5625V35.4375C0 37.6113 1.77567 39.375 3.96429 39.375H33.0357C35.2243 39.375 37 37.6113 37 35.4375V6.5625C37 4.38867 35.2243 2.625 33.0357 2.625ZM10.4888 31.541C10.0346 32.3285 9.01875 32.591 8.23415 32.1398C7.44129 31.6887 7.17701 30.6797 7.63125 29.9004L8.81228 27.8742C10.142 27.4723 11.2321 27.784 12.0828 28.8094L10.4888 31.541ZM21.9605 27.1195H6.9375C6.02902 27.1195 5.28571 26.3813 5.28571 25.4789C5.28571 24.5766 6.02902 23.8383 6.9375 23.8383H11.1496L16.5509 14.5523L14.8578 11.6484C14.4036 10.8609 14.6761 9.86016 15.4607 9.40898C16.2536 8.95781 17.2612 9.22852 17.7154 10.0078L18.4504 11.2711L19.1855 10.0078C19.6397 9.22031 20.6556 8.95781 21.4402 9.40898C22.233 9.86016 22.4973 10.8691 22.0431 11.6484L14.9569 23.8383H20.0857C21.754 23.8383 22.6873 25.7824 21.9605 27.1195ZM30.0625 27.1195H27.6674L29.2862 29.9004C29.7404 30.6879 29.4679 31.6887 28.6833 32.1398C27.8904 32.591 26.8828 32.3203 26.4286 31.541C23.7114 26.8734 21.6797 23.3625 20.317 21.0328C18.9377 18.6539 19.9205 16.275 20.9033 15.4711C21.9853 17.3332 23.604 20.1223 25.7679 23.8383H30.0625C30.971 23.8383 31.7143 24.5766 31.7143 25.4789C31.7143 26.3895 30.971 27.1195 30.0625 27.1195Z" fill="white"/>
</svg>
